<?xml version="1.0" encoding="UTF-8" standalone="no"?>
<svg
   id="envelope"
   viewBox="0 0 24 24"
   version="1.1"
   sodipodi:docname="envelope.svg"
   inkscape:version="1.4.2 (f48b429, 2025-09-25)"
   xmlns:inkscape="http://www.inkscape.org/namespaces/inkscape"
   xmlns:sodipodi="http://sodipodi.sourceforge.net/DTD/sodipodi-0.dtd"
   xmlns="http://www.w3.org/2000/svg"
   xmlns:svg="http://www.w3.org/2000/svg">
  <defs
     id="defs1" />
  <sodipodi:namedview
     id="namedview1"
     pagecolor="#ffffff"
     bordercolor="#000000"
     borderopacity="0.25"
     inkscape:showpageshadow="2"
     inkscape:pageopacity="0.0"
     inkscape:pagecheckerboard="0"
     inkscape:deskcolor="#d1d1d1"
     inkscape:zoom="1.0833333"
     inkscape:cx="12"
     inkscape:cy="11.538462"
     inkscape:window-width="896"
     inkscape:window-height="250"
     inkscape:window-x="3840"
     inkscape:window-y="1104"
     inkscape:window-maximized="0"
     inkscape:current-layer="envelope" />
  <path
     d="m21,5v-1H3v1H1v14h1v1h20v-1h1V5h-2Zm-11,7v-1h-1v-1h-1v-1h-1v-1h-1v-1h-1v-1h14v1h-1v1h-1v1h-1v1h-1v1h-1v1h-1v1h-2v-1h-1Zm-6-5v1h1v1h1v1h1v1h1v1h1v1h1v1h1v1h2v-1h1v-1h1v-1h1v-1h1v-1h1v-1h1v-1h1v-1h1v11H3V7h1Z"
     id="path1" />
</svg>
