<?xml version="1.0" encoding="UTF-8" standalone="no"?>
<svg
   id="globe"
   viewBox="0 0 24 24"
   version="1.1"
   sodipodi:docname="globe.svg"
   inkscape:version="1.4.2 (f48b429, 2025-09-25)"
   xmlns:inkscape="http://www.inkscape.org/namespaces/inkscape"
   xmlns:sodipodi="http://sodipodi.sourceforge.net/DTD/sodipodi-0.dtd"
   xmlns="http://www.w3.org/2000/svg"
   xmlns:svg="http://www.w3.org/2000/svg">
  <defs
     id="defs1" />
  <sodipodi:namedview
     id="namedview1"
     pagecolor="#ffffff"
     bordercolor="#000000"
     borderopacity="0.25"
     inkscape:showpageshadow="2"
     inkscape:pageopacity="0.0"
     inkscape:pagecheckerboard="0"
     inkscape:deskcolor="#d1d1d1"
     inkscape:zoom="1.0833333"
     inkscape:cx="12"
     inkscape:cy="11.538462"
     inkscape:window-width="896"
     inkscape:window-height="250"
     inkscape:window-x="3840"
     inkscape:window-y="1104"
     inkscape:window-maximized="0"
     inkscape:current-layer="globe" />
  <path
     d="m22,9v-2h-1v-2h-1v-1h-1v-1h-2v-1h-2v-1h-6v1h-2v1h-2v1h-1v1h-1v2h-1v2h-1v7h1v1h1v2h1v1h1v1h2v1h2v1h6v-1h2v-1h2v-1h1v-1h1v-2h1v-2h1v-6h-1Zm-1,1v4h-3v-4h3Zm-5-6h1v1h2v2h1v1h-3v-3h-1v-1Zm-2,14v2h-1v1h-2v-1h-1v-2h-1v-2h6v2h-1Zm2-8v4h-8v-4h8Zm-7-4h1v-2h1v-1h2v1h1v2h1v2h-6v-2Zm-5,1h1v-2h2v-1h1v1h-1v3h-3v-1Zm-1,7v-4h3v4h-3Zm2,5v-2h-1v-1h3v3h1v1h-1v-1h-2Zm14-2v2h-2v1h-1v-1h1v-3h3v1h-1Z"
     id="path1" />
</svg>
