<?xml version="1.0" encoding="UTF-8" standalone="no"?>
<svg
   id="search"
   viewBox="0 0 24 24"
   version="1.1"
   xmlns="http://www.w3.org/2000/svg"
   xmlns:svg="http://www.w3.org/2000/svg">
  <defs
     id="defs1" />
  <path
     d="m 20.882905,19.106324 v -0.88829 h -0.88829 v -0.888291 h -0.888291 v -0.88829 h -0.88829 v -0.888291 h -1.776581 v -0.88829 h 0.88829 v -1.776581 h 0.888291 V 7.5585475 h -0.888291 v -1.776581 h -0.88829 V 4.893676 H 15.553162 V 4.0053855 h -0.88829 V 3.117095 H 12.888291 V 2.2288045 H 7.5585475 V 3.117095 H 5.7819665 V 4.0053855 H 4.893676 V 4.893676 H 4.0053855 V 5.7819665 H 3.117095 v 1.776581 H 2.2288045 V 12.888291 H 3.117095 v 1.776581 h 0.8882905 v 0.88829 H 4.893676 v 0.888291 h 0.8882905 v 0.88829 h 1.776581 v 0.888291 h 5.3297435 v -0.888291 h 1.776581 v -0.88829 h 0.88829 v 1.776581 h 0.888291 v 0.88829 h 0.88829 v 0.888291 h 0.888291 v 0.88829 h 0.88829 v 0.888291 h 1.776581 v -0.888291 h 0.888291 V 19.106324 Z M 12,14.664872 v 0.88829 H 8.446838 v -0.88829 H 6.670257 V 13.776581 H 5.7819665 V 12 H 4.893676 V 8.446838 H 5.7819665 V 6.670257 H 6.670257 V 5.7819665 H 8.446838 V 4.893676 H 12 v 0.8882905 h 1.776581 V 6.670257 h 0.888291 v 1.776581 h 0.88829 V 12 h -0.88829 v 1.776581 h -0.888291 v 0.888291 z"
     id="path1"
     style="stroke-width:0.888291" />
</svg>
